{
    "asset" : {
        "generator" : "Khronos glTF Blender I/O v1.7.33",
        "version" : "2.0"
    },
    "scene" : 0,
    "scenes" : [
        {
            "name" : "Scene",
            "nodes" : [
                0
            ]
        }
    ],
    "nodes" : [
        {
            "mesh" : 0,
            "name" : "Plane"
        }
    ],
    "meshes" : [
        {
            "name" : "Plane",
            "primitives" : [
                {
                    "attributes" : {
                        "POSITION" : 0,
                        "NORMAL" : 1,
                        "TEXCOORD_0" : 2
                    },
                    "indices" : 3
                }
            ]
        }
    ],
    "accessors" : [
        {
            "bufferView" : 0,
            "componentType" : 5126,
            "count" : 1040,
            "max" : [
                7.468268871307373,
                0.5985233783721924,
                7.367791175842285
            ],
            "min" : [
                -7.728985786437988,
                -3.115724563598633,
                -7.662189960479736
            ],
            "type" : "VEC3"
        },
        {
            "bufferView" : 1,
            "componentType" : 5126,
            "count" : 1040,
            "type" : "VEC3"
        },
        {
            "bufferView" : 2,
            "componentType" : 5126,
            "count" : 1040,
            "type" : "VEC2"
        },
        {
            "bufferView" : 3,
            "componentType" : 5123,
            "count" : 1560,
            "type" : "SCALAR"
        }
    ],
    "bufferViews" : [
        {
            "buffer" : 0,
            "byteLength" : 12480,
            "byteOffset" : 0
        },
        {
            "buffer" : 0,
            "byteLength" : 12480,
            "byteOffset" : 12480
        },
        {
            "buffer" : 0,
            "byteLength" : 8320,
            "byteOffset" : 24960
        },
        {
            "buffer" : 0,
            "byteLength" : 3120,
            "byteOffset" : 33280
        }
    ],
    "buffers" : [
        {
            "byteLength" : 36400,
            "uri" : "data:application/octet-stream;base64,"
        }
    ]
}
