{
  "accessors": [
    {
      "bufferView": 2,
      "componentType": 5126,
      "count": 5709,
      "max": [
        1.3832000494003296,
        1.0777000188827515,
        1.4541000127792358
      ],
      "min": [
        -1.4752999544143677,
        -0.7989000082015991,
        -1.3907999992370605
      ],
      "type": "VEC3"
    },
    {
      "bufferView": 2,
      "byteOffset": 68508,
      "componentType": 5126,
      "count": 5709,
      "max": [
        0.9992872476577759,
        0.999896764755249,
        0.9999799728393555
      ],
      "min": [
        -0.9998886585235596,
        -0.998763918876648,
        -0.9998251795768738
      ],
      "type": "VEC3"
    },
    {
      "bufferView": 3,
      "componentType": 5126,
      "count": 5709,
      "max": [
        0.9999719858169556,
        0.9996973872184753,
        0.9994110465049744,
        1.0
      ],
      "min": [
        -0.999981701374054,
        -0.9979429841041565,
        -0.998234748840332,
        -1.0
      ],
      "type": "VEC4"
    },
    {
      "bufferView": 1,
      "componentType": 5126,
      "count": 5709,
      "max": [
        0.9639999866485596,
        0.9800000190734863
      ],
      "min": [
        0.019999999552965164,
        0.019999999552965164
      ],
      "type": "VEC2"
    },
    {
      "bufferView": 0,
      "componentType": 5125,
      "count": 29403,
      "type": "SCALAR"
    }
  ],
  "asset": {
    "extras": {
      "author": "Indie Omega (Alan Antich) (https://sketchfab.com/IOM_Studios)",
      "license": "CC-BY-4.0 (http://creativecommons.org/licenses/by/4.0/)",
      "source": "https://sketchfab.com/3d-models/potato-character-df936bc8c3e14aeb98a242943b9caf35",
      "title": "Potato Character"
    },
    "generator": "Sketchfab-12.67.0",
    "version": "2.0"
  },
  "bufferViews": [
    {
      "buffer": 0,
      "byteLength": 117612,
      "name": "floatBufferViews",
      "target": 34963
    },
    {
      "buffer": 0,
      "byteLength": 45672,
      "byteOffset": 117612,
      "byteStride": 8,
      "name": "floatBufferViews",
      "target": 34962
    },
    {
      "buffer": 0,
      "byteLength": 137016,
      "byteOffset": 163284,
      "byteStride": 12,
      "name": "floatBufferViews",
      "target": 34962
    },
    {
      "buffer": 0,
      "byteLength": 91344,
      "byteOffset": 300300,
      "byteStride": 16,
      "name": "floatBufferViews",
      "target": 34962
    }
  ],
  "buffers": [
    {
      "byteLength": 391644,
      "uri": "scene.bin"
    }
  ],
  "images": [
    {
      "uri": "textures/COLMILLOSRETOPOLOGY_default_baseColor.png"
    },
    {
      "uri": "textures/COLMILLOSRETOPOLOGY_default_normal.png"
    }
  ],
  "materials": [
    {
      "doubleSided": true,
      "name": "COLMILLOSRETOPOLOGY_default",
      "normalTexture": {
        "index": 1
      },
      "pbrMetallicRoughness": {
        "baseColorTexture": {
          "index": 0
        },
        "metallicFactor": 0.0,
        "roughnessFactor": 0.6968368902
      }
    }
  ],
  "meshes": [
    {
      "name": "Object_0",
      "primitives": [
        {
          "attributes": {
            "NORMAL": 1,
            "POSITION": 0,
            "TANGENT": 2,
            "TEXCOORD_0": 3
          },
          "indices": 4,
          "material": 0,
          "mode": 4
        }
      ]
    }
  ],
  "nodes": [
    {
      "children": [
        1
      ],
      "matrix": [
        1.0,
        0.0,
        0.0,
        0.0,
        0.0,
        2.220446049250313e-16,
        -1.0,
        0.0,
        0.0,
        1.0,
        2.220446049250313e-16,
        0.0,
        0.0,
        0.0,
        0.0,
        1.0
      ],
      "name": "Sketchfab_model"
    },
    {
      "children": [
        2
      ],
      "name": "Potato_LOW.obj.cleaner.materialmerger.gles"
    },
    {
      "mesh": 0,
      "name": "Object_2"
    }
  ],
  "samplers": [
    {
      "magFilter": 9729,
      "minFilter": 9987,
      "wrapS": 10497,
      "wrapT": 10497
    }
  ],
  "scene": 0,
  "scenes": [
    {
      "name": "Sketchfab_Scene",
      "nodes": [
        0
      ]
    }
  ],
  "textures": [
    {
      "sampler": 0,
      "source": 0
    },
    {
      "sampler": 0,
      "source": 1
    }
  ]
}
